<svg xmlns="http://www.w3.org/2000/svg" viewBox="0 0 64 64">
  <circle cx="32" cy="32" r="29" fill="#24292F"/>
  <path fill="#fff" d="M32 13.2a19.2 19.2 0 0 0-6.1 37.4c1 .2 1.3-.4 1.3-.9v-3.4c-5.5 1.2-6.6-2.3-6.6-2.3-.9-2.3-2.2-2.9-2.2-2.9-1.8-1.2.1-1.2.1-1.2 2 .1 3.1 2.1 3.1 2.1 1.8 3.1 4.7 2.2 5.8 1.7.2-1.3.7-2.2 1.3-2.7-4.4-.5-9-2.2-9-9.5 0-2.1.8-3.8 2-5.2-.2-.5-.9-2.5.2-5.1 0 0 1.6-.5 5.3 2a18.4 18.4 0 0 1 9.6 0c3.7-2.5 5.3-2 5.3-2 1 2.6.4 4.6.2 5.1 1.3 1.4 2 3.1 2 5.2 0 7.4-4.6 9-9 9.5.7.6 1.3 1.8 1.3 3.6v5.3c0 .5.4 1.1 1.4.9A19.2 19.2 0 0 0 32 13.2Z"/>
</svg>
